<svg width="100" height="100" viewBox="0 0 100 100" fill="none" xmlns="http://www.w3.org/2000/svg">
<rect width="100" height="100" rx="4" fill="#EEEFF2"/>
<path fill-rule="evenodd" clip-rule="evenodd" d="M77.9951 39.8634C77.9951 39.8634 78.7543 23.1987 61.3482 19.7396C43.9421 16.2805 33.3771 25.7137 31.8224 32.3185C30.2678 38.9233 29.5126 42.307 30.2678 44.8973C31.1998 46.1548 30.8905 47.0989 29.0265 50.2446C27.1626 53.3903 23.4307 56.8494 28.7172 57.4762C32.1358 58.1069 29.9585 60.3045 29.9585 60.3045C29.9585 60.3045 29.0265 62.1928 31.8224 62.5061C31.8224 62.5061 29.9585 65.9652 31.5131 65.9652C33.0677 65.9652 33.3771 66.5959 33.6904 67.8534C33.9997 69.1109 33.3811 76.0291 44.2594 71.9393C46.746 70.6818 47.8427 75.8149 49.2326 78.8574C50.0682 80.6862 50.964 83.1813 55.1378 81.3724C58.8616 79.7579 67.169 75.9061 70.2863 70.6421C71.9895 67.7582 67.5024 63.5891 69.6797 57.9284C71.857 52.2677 72.5399 54.0131 74.7171 50.8714C76.8904 47.7257 77.6818 43.6359 77.9951 39.8634Z" fill="#00BFF2"/>
<path d="M45 62L46.2929 60.7071C46.6834 60.3166 47.3166 60.3166 47.7071 60.7071L48.2929 61.2929C48.6834 61.6834 49.3166 61.6834 49.7071 61.2929L50.2929 60.7071C50.6834 60.3166 51.3166 60.3166 51.7071 60.7071L52.2929 61.2929C52.6834 61.6834 53.3166 61.6834 53.7071 61.2929L54.2929 60.7071C54.6834 60.3166 55.3166 60.3166 55.7071 60.7071L56.2929 61.2929C56.6834 61.6834 57.3166 61.6834 57.7071 61.2929L58.2929 60.7071C58.6834 60.3166 59.3166 60.3166 59.7071 60.7071L60.2929 61.2929C60.6834 61.6834 61.3166 61.6834 61.7071 61.2929L62.2929 60.7071C62.6834 60.3166 63.3166 60.3166 63.7071 60.7071L64.2929 61.2929C64.6834 61.6834 65.3166 61.6834 65.7071 61.2929L66 61" stroke="#111111"/>
<rect x="45" y="42" width="33" height="3" fill="white"/>
<rect x="45" y="48" width="33" height="3" fill="white"/>
<rect x="45" y="54" width="21" height="3" fill="white"/>
<path fill-rule="evenodd" clip-rule="evenodd" d="M37.7013 37.8822C38.7665 38.5707 39.9977 39.0365 41.5002 39C43.0001 39.0365 44.234 38.5707 45.2991 37.8822L45.2762 34.95H37.7243L37.7013 37.8822ZM45.1412 33.6C45.1412 27.7181 51.3917 25.7052 50.9232 19.8462C50.6289 16.1499 48.1247 12.0027 41.5002 12.0027C34.8758 12.0027 32.3715 16.1499 32.0759 19.8476C31.6074 25.7052 37.8593 27.7181 37.8593 33.6H45.1412ZM34.7502 20.1C35.0297 16.5927 37.6028 14.7 41.5002 14.7C45.3963 14.7 47.7831 16.5509 48.0626 20.0582C48.2151 21.9806 47.1108 23.2617 45.6204 25.3583C44.5215 26.9054 43.4564 28.5213 42.8502 30.9H40.1502C39.5441 28.5213 38.4789 26.9054 37.3787 25.3569C35.8896 23.2617 34.5963 22.0224 34.7502 20.1Z" fill="#111111"/>
</svg>
