<svg width="100" height="100" viewBox="0 0 100 100" fill="none" xmlns="http://www.w3.org/2000/svg">
<rect width="100" height="100" rx="4" fill="#EEEFF2"/>
<rect x="19" y="20" width="58" height="58" rx="29" fill="#00BFF2"/>
<path d="M67.7083 64.0625C69.1339 64.0625 70.501 64.6288 71.509 65.6368C72.517 66.6448 73.0833 68.012 73.0833 69.4375C73.0833 70.863 72.517 72.2302 71.509 73.2382C70.501 74.2462 69.1339 74.8125 67.7083 74.8125C66.2828 74.8125 64.9156 74.2462 63.9076 73.2382C62.8996 72.2302 62.3333 70.863 62.3333 69.4375C62.3333 68.012 62.8996 66.6448 63.9076 65.6368C64.9156 64.6288 66.2828 64.0625 67.7083 64.0625ZM67.7083 56C76.672 56 84.3207 61.5739 87.4167 69.4375C84.3207 77.3011 76.672 82.875 67.7083 82.875C58.7464 82.875 51.096 77.3011 48 69.4375C51.096 61.5739 58.7464 56 67.7083 56ZM50.9112 69.4375C53.4442 74.6151 59.7065 80.2949 67.7074 80.2949C75.7084 80.2949 81.9707 74.6151 84.5037 69.4375C81.9691 64.262 75.2084 58.5846 67.7074 58.5846C60.2065 58.5846 53.4458 64.262 50.9112 69.4375Z" fill="#111111"/>
<path d="M32 48.6309L42.56 53.4352V50.2969L35.4275 47.3369V47.1974L42.56 44.2374V41.0991L32 45.9033V48.6309Z" fill="white"/>
<path d="M52.3531 37H49.6006L44.6506 56H47.4031L52.3531 37Z" fill="white"/>
<path d="M65 48.6309V45.9033L54.44 41.0991V44.2374L61.5725 47.1974V47.3369L54.44 50.2969V53.4352L65 48.6309Z" fill="white"/>
</svg>
