<?xml version="1.0" standalone="no"?>
<!DOCTYPE svg PUBLIC "-//W3C//DTD SVG 20010904//EN"
 "http://www.w3.org/TR/2001/REC-SVG-20010904/DTD/svg10.dtd">
<svg version="1.0" xmlns="http://www.w3.org/2000/svg"
 width="512.000000pt" height="512.000000pt" viewBox="0 0 512.000000 512.000000"
 preserveAspectRatio="xMidYMid meet">
<metadata>
Created by potrace 1.11, written by Peter Selinger 2001-2013
</metadata>
<g transform="translate(0.000000,512.000000) scale(0.100000,-0.100000)"
fill="#000000" stroke="none">
<path d="M2369 5116 c-2 -2 -36 -6 -74 -10 -39 -4 -81 -8 -95 -11 -31 -5 -135
-23 -174 -31 -93 -17 -323 -88 -436 -134 -115 -47 -319 -155 -425 -224 -655
-431 -1069 -1108 -1153 -1886 -14 -137 -6 -531 14 -635 2 -11 9 -49 15 -85 38
-226 131 -497 247 -720 264 -508 703 -922 1229 -1158 190 -85 439 -160 628
-188 22 -3 51 -8 65 -10 81 -13 176 -19 345 -19 239 0 376 14 565 57 803 182
1470 736 1794 1491 32 74 87 224 102 277 34 123 69 286 80 375 3 28 8 61 10
75 9 49 12 456 4 525 -16 136 -20 161 -41 265 -120 601 -468 1154 -964 1531
-344 261 -779 442 -1195 495 -25 3 -56 8 -70 11 -28 5 -466 14 -471 9z m386
-261 c218 -17 468 -77 675 -162 676 -278 1178 -853 1360 -1558 15 -60 31 -128
34 -150 4 -22 8 -47 11 -55 3 -13 9 -56 21 -170 5 -45 5 -367 0 -400 -2 -14
-7 -54 -11 -90 -4 -36 -18 -119 -32 -185 -137 -656 -558 -1223 -1148 -1547
-72 -39 -110 -57 -250 -118 -127 -55 -395 -126 -553 -145 -70 -9 -224 -19
-287 -19 -77 1 -278 12 -310 18 -11 2 -42 7 -70 10 -27 4 -106 21 -174 37
-575 140 -1066 486 -1393 984 -107 163 -260 503 -294 656 -2 10 -6 27 -9 37
-57 222 -78 472 -62 727 28 431 190 865 457 1219 43 57 86 113 97 123 10 11
45 48 79 84 289 307 671 531 1092 640 62 16 125 31 140 33 15 2 47 8 72 11 25
4 54 9 65 11 11 2 67 7 125 10 58 4 106 7 107 8 4 4 175 -2 258 -9z"/>
<path d="M2049 3808 c0 -18 0 -210 -1 -427 l0 -393 213 -214 214 -214 213 0
212 0 -2 -427 -3 -427 -207 -1 c-115 0 -209 2 -209 5 -1 3 -2 194 -3 425 l-1
420 -212 3 c-167 2 -213 0 -214 -10 -1 -15 0 -1211 0 -1245 l1 -23 426 0 426
0 214 213 213 213 0 640 0 640 -421 0 c-231 -1 -423 1 -427 4 -3 3 -7 98 -6
213 0 178 2 207 15 208 8 1 195 2 415 3 220 2 404 3 409 4 4 1 -86 97 -202
212 l-210 210 -426 0 -426 0 -1 -32z"/>
</g>
</svg>
