<svg width="1016" height="464" viewBox="0 0 1016 464" fill="none" xmlns="http://www.w3.org/2000/svg">
    <path d="M207.982 446.364V458H209.652V449.574H209.76L213.192 457.983H214.578L218.01 449.58H218.118V458H219.788V446.364H217.658L213.953 455.409H213.817L210.112 446.364H207.982ZM224.744 458.193C226.188 458.193 227 457.46 227.324 456.807H227.392V458H229.051V452.205C229.051 449.665 227.051 449.159 225.665 449.159C224.085 449.159 222.631 449.795 222.062 451.386L223.659 451.75C223.909 451.131 224.545 450.534 225.688 450.534C226.784 450.534 227.347 451.108 227.347 452.097V452.136C227.347 452.756 226.71 452.744 225.142 452.926C223.489 453.119 221.795 453.551 221.795 455.534C221.795 457.25 223.085 458.193 224.744 458.193ZM225.114 456.83C224.153 456.83 223.46 456.398 223.46 455.557C223.46 454.648 224.267 454.324 225.25 454.193C225.801 454.119 227.108 453.972 227.352 453.727V454.852C227.352 455.886 226.528 456.83 225.114 456.83ZM236.893 449.273H231.314V458H232.99V450.739H236.893V449.273ZM240.822 458.193C242.266 458.193 243.078 457.46 243.402 456.807H243.47V458H245.129V452.205C245.129 449.665 243.129 449.159 241.743 449.159C240.163 449.159 238.709 449.795 238.141 451.386L239.737 451.75C239.987 451.131 240.624 450.534 241.766 450.534C242.862 450.534 243.425 451.108 243.425 452.097V452.136C243.425 452.756 242.788 452.744 241.22 452.926C239.567 453.119 237.874 453.551 237.874 455.534C237.874 457.25 239.163 458.193 240.822 458.193ZM241.192 456.83C240.232 456.83 239.538 456.398 239.538 455.557C239.538 454.648 240.345 454.324 241.328 454.193C241.879 454.119 243.186 453.972 243.43 453.727V454.852C243.43 455.886 242.607 456.83 241.192 456.83ZM252.29 455.898L249.528 449.273H247.392V458H249.057V451.653L251.659 458H252.92L255.568 451.676V458H257.222V449.273H255.108L252.29 455.898ZM262.026 458.193C263.469 458.193 264.281 457.46 264.605 456.807H264.673V458H266.332V452.205C266.332 449.665 264.332 449.159 262.946 449.159C261.366 449.159 259.912 449.795 259.344 451.386L260.94 451.75C261.19 451.131 261.827 450.534 262.969 450.534C264.065 450.534 264.628 451.108 264.628 452.097V452.136C264.628 452.756 263.991 452.744 262.423 452.926C260.77 453.119 259.077 453.551 259.077 455.534C259.077 457.25 260.366 458.193 262.026 458.193ZM262.395 456.83C261.435 456.83 260.741 456.398 260.741 455.557C260.741 454.648 261.548 454.324 262.531 454.193C263.082 454.119 264.389 453.972 264.634 453.727V454.852C264.634 455.886 263.81 456.83 262.395 456.83ZM267.743 460.517H269.425V458H275.51V460.517H277.169V456.528H275.828V449.273H269.896L269.624 452.528C269.442 454.727 269.175 455.875 268.453 456.528H267.743V460.517ZM270.271 456.528C270.851 455.716 271.067 454.364 271.237 452.528L271.419 450.727H274.169V456.528H270.271ZM282.506 458.176C284.966 458.176 286.574 456.375 286.574 453.676C286.574 450.96 284.966 449.159 282.506 449.159C280.045 449.159 278.438 450.96 278.438 453.676C278.438 456.375 280.045 458.176 282.506 458.176ZM282.511 456.75C280.903 456.75 280.153 455.347 280.153 453.67C280.153 452 280.903 450.58 282.511 450.58C284.108 450.58 284.858 452 284.858 453.67C284.858 455.347 284.108 456.75 282.511 456.75ZM288.47 458H292.641C294.55 458 295.669 457.034 295.669 455.648C295.669 454.352 294.675 453.557 293.51 453.42C294.584 453.216 295.294 452.625 295.294 451.602C295.294 450.17 294.055 449.273 292.089 449.273H288.47V458ZM290.067 456.58V454.153H292.641C293.482 454.153 293.987 454.648 293.987 455.46C293.987 456.153 293.482 456.58 292.641 456.58H290.067ZM290.067 452.909V450.71H292.089C293.055 450.71 293.641 451.114 293.641 451.784C293.641 452.483 293.061 452.909 292.107 452.909H290.067ZM300.072 458.193C301.516 458.193 302.328 457.46 302.652 456.807H302.72V458H304.379V452.205C304.379 449.665 302.379 449.159 300.993 449.159C299.413 449.159 297.959 449.795 297.391 451.386L298.987 451.75C299.237 451.131 299.874 450.534 301.016 450.534C302.112 450.534 302.675 451.108 302.675 452.097V452.136C302.675 452.756 302.038 452.744 300.47 452.926C298.817 453.119 297.124 453.551 297.124 455.534C297.124 457.25 298.413 458.193 300.072 458.193ZM300.442 456.83C299.482 456.83 298.788 456.398 298.788 455.557C298.788 454.648 299.595 454.324 300.578 454.193C301.129 454.119 302.436 453.972 302.68 453.727V454.852C302.68 455.886 301.857 456.83 300.442 456.83ZM310.439 447.875H314.064V458H315.814V447.875H319.445V446.364H310.439V447.875ZM322.651 458.193C324.094 458.193 324.906 457.46 325.23 456.807H325.298V458H326.957V452.205C326.957 449.665 324.957 449.159 323.571 449.159C321.991 449.159 320.537 449.795 319.969 451.386L321.565 451.75C321.815 451.131 322.452 450.534 323.594 450.534C324.69 450.534 325.253 451.108 325.253 452.097V452.136C325.253 452.756 324.616 452.744 323.048 452.926C321.395 453.119 319.702 453.551 319.702 455.534C319.702 457.25 320.991 458.193 322.651 458.193ZM323.02 456.83C322.06 456.83 321.366 456.398 321.366 455.557C321.366 454.648 322.173 454.324 323.156 454.193C323.707 454.119 325.014 453.972 325.259 453.727V454.852C325.259 455.886 324.435 456.83 323.02 456.83ZM330.885 449.273H329.22V458H330.885V454.375H334.663V458H336.322V449.273H334.663V452.903H330.885V449.273ZM338.078 455.693C338.129 457.216 339.555 458.176 341.493 458.176C343.482 458.176 344.919 457.176 344.919 455.574C344.919 454.438 344.197 453.597 343.186 453.528V453.438C344.101 453.176 344.732 452.562 344.732 451.602C344.732 450.17 343.504 449.159 341.561 449.159C339.697 449.159 338.328 450.153 338.294 451.619H340.01C340.044 450.966 340.72 450.511 341.646 450.511C342.561 450.511 343.095 450.989 343.095 451.699C343.095 452.364 342.618 452.852 341.658 452.852H340.237V454.188H341.658C342.624 454.188 343.243 454.722 343.243 455.511C343.243 456.403 342.453 456.807 341.476 456.807C340.516 456.807 339.868 456.409 339.817 455.693H338.078ZM346.673 458H348.372V449.273H346.673V458ZM347.531 447.926C348.116 447.926 348.605 447.472 348.605 446.915C348.605 446.358 348.116 445.898 347.531 445.898C346.94 445.898 346.457 446.358 346.457 446.915C346.457 447.472 346.94 447.926 347.531 447.926ZM349.97 458H350.516C352.419 458 353.118 456.591 353.254 453.705L353.391 450.739H356.243V458H357.908V449.273H351.817L351.663 453.136C351.555 455.83 351.249 456.528 350.277 456.528H349.964L349.97 458ZM362.713 458.193C364.156 458.193 364.969 457.46 365.293 456.807H365.361V458H367.02V452.205C367.02 449.665 365.02 449.159 363.634 449.159C362.054 449.159 360.599 449.795 360.031 451.386L361.628 451.75C361.878 451.131 362.514 450.534 363.656 450.534C364.753 450.534 365.315 451.108 365.315 452.097V452.136C365.315 452.756 364.679 452.744 363.111 452.926C361.457 453.119 359.764 453.551 359.764 455.534C359.764 457.25 361.054 458.193 362.713 458.193ZM363.082 456.83C362.122 456.83 361.429 456.398 361.429 455.557C361.429 454.648 362.236 454.324 363.219 454.193C363.77 454.119 365.077 453.972 365.321 453.727V454.852C365.321 455.886 364.497 456.83 363.082 456.83ZM373.653 458H378.114C380.818 458 382.04 456.653 382.04 454.869C382.04 453.068 380.778 452.051 379.625 451.989V451.875C380.693 451.602 381.585 450.875 381.585 449.42C381.585 447.699 380.392 446.364 377.915 446.364H373.653V458ZM375.409 456.494V452.767H378.006C379.415 452.767 380.295 453.676 380.295 454.784C380.295 455.761 379.631 456.494 377.943 456.494H375.409ZM375.409 451.398V447.858H377.807C379.199 447.858 379.864 448.591 379.864 449.557C379.864 450.682 378.943 451.398 377.761 451.398H375.409ZM386.526 458.193C387.969 458.193 388.781 457.46 389.105 456.807H389.173V458H390.832V452.205C390.832 449.665 388.832 449.159 387.446 449.159C385.866 449.159 384.412 449.795 383.844 451.386L385.44 451.75C385.69 451.131 386.327 450.534 387.469 450.534C388.565 450.534 389.128 451.108 389.128 452.097V452.136C389.128 452.756 388.491 452.744 386.923 452.926C385.27 453.119 383.577 453.551 383.577 455.534C383.577 457.25 384.866 458.193 386.526 458.193ZM386.895 456.83C385.935 456.83 385.241 456.398 385.241 455.557C385.241 454.648 386.048 454.324 387.031 454.193C387.582 454.119 388.889 453.972 389.134 453.727V454.852C389.134 455.886 388.31 456.83 386.895 456.83ZM394.436 449.273H392.572L395.254 453.636L392.538 458H394.402L396.362 454.739L398.328 458H400.186L397.442 453.636L400.163 449.273H398.305L396.362 452.67L394.436 449.273ZM401.908 458H403.607V449.273H401.908V458ZM402.766 447.926C403.351 447.926 403.839 447.472 403.839 446.915C403.839 446.358 403.351 445.898 402.766 445.898C402.175 445.898 401.692 446.358 401.692 446.915C401.692 447.472 402.175 447.926 402.766 447.926ZM405.892 458H410.062C411.972 458 413.091 457.034 413.091 455.648C413.091 454.352 412.097 453.557 410.932 453.42C412.006 453.216 412.716 452.625 412.716 451.602C412.716 450.17 411.477 449.273 409.511 449.273H405.892V458ZM407.489 456.58V454.153H410.062C410.903 454.153 411.409 454.648 411.409 455.46C411.409 456.153 410.903 456.58 410.062 456.58H407.489ZM407.489 452.909V450.71H409.511C410.477 450.71 411.062 451.114 411.062 451.784C411.062 452.483 410.483 452.909 409.528 452.909H407.489ZM416.619 449.273H414.955V458H416.619V454.375H420.398V458H422.057V449.273H420.398V452.903H416.619V449.273ZM426.869 458.193C428.312 458.193 429.125 457.46 429.449 456.807H429.517V458H431.176V452.205C431.176 449.665 429.176 449.159 427.79 449.159C426.21 449.159 424.756 449.795 424.188 451.386L425.784 451.75C426.034 451.131 426.67 450.534 427.812 450.534C428.909 450.534 429.472 451.108 429.472 452.097V452.136C429.472 452.756 428.835 452.744 427.267 452.926C425.614 453.119 423.92 453.551 423.92 455.534C423.92 457.25 425.21 458.193 426.869 458.193ZM427.239 456.83C426.278 456.83 425.585 456.398 425.585 455.557C425.585 454.648 426.392 454.324 427.375 454.193C427.926 454.119 429.233 453.972 429.477 453.727V454.852C429.477 455.886 428.653 456.83 427.239 456.83Z" fill="#111111"/>
    <path d="M678.622 458H680.378V453.909H682.764C685.463 453.909 686.798 452.278 686.798 450.131C686.798 447.989 685.474 446.364 682.77 446.364H678.622V458ZM680.378 452.42V447.869H682.582C684.321 447.869 685.031 448.812 685.031 450.131C685.031 451.449 684.321 452.42 682.605 452.42H680.378ZM692.287 458.176C694.747 458.176 696.355 456.375 696.355 453.676C696.355 450.96 694.747 449.159 692.287 449.159C689.827 449.159 688.219 450.96 688.219 453.676C688.219 456.375 689.827 458.176 692.287 458.176ZM692.293 456.75C690.685 456.75 689.935 455.347 689.935 453.67C689.935 452 690.685 450.58 692.293 450.58C693.889 450.58 694.639 452 694.639 453.67C694.639 455.347 693.889 456.75 692.293 456.75ZM697.335 458H699.352L702.091 454.364H702.659V458H704.358V454.364H704.926L707.648 458H709.665L706.301 453.534L709.625 449.273H707.648L704.949 452.898H704.358V449.273H702.659V452.898H702.051L699.352 449.273H697.375L700.716 453.534L697.335 458ZM711.392 458H713.091V454.511H714.193L716.824 458H718.932L715.511 453.517L718.892 449.273H716.79L713.909 452.932H713.091V449.273H711.392V458ZM723.568 458.176C726.028 458.176 727.636 456.375 727.636 453.676C727.636 450.96 726.028 449.159 723.568 449.159C721.108 449.159 719.5 450.96 719.5 453.676C719.5 456.375 721.108 458.176 723.568 458.176ZM723.574 456.75C721.966 456.75 721.216 455.347 721.216 453.67C721.216 452 721.966 450.58 723.574 450.58C725.17 450.58 725.92 452 725.92 453.67C725.92 455.347 725.17 456.75 723.574 456.75ZM729.533 458H733.703C735.612 458 736.732 457.034 736.732 455.648C736.732 454.352 735.737 453.557 734.572 453.42C735.646 453.216 736.357 452.625 736.357 451.602C736.357 450.17 735.118 449.273 733.152 449.273H729.533V458ZM731.129 456.58V454.153H733.703C734.544 454.153 735.05 454.648 735.05 455.46C735.05 456.153 734.544 456.58 733.703 456.58H731.129ZM731.129 452.909V450.71H733.152C734.118 450.71 734.703 451.114 734.703 451.784C734.703 452.483 734.124 452.909 733.169 452.909H731.129ZM741.135 458.193C742.578 458.193 743.391 457.46 743.714 456.807H743.783V458H745.442V452.205C745.442 449.665 743.442 449.159 742.055 449.159C740.476 449.159 739.021 449.795 738.453 451.386L740.05 451.75C740.3 451.131 740.936 450.534 742.078 450.534C743.175 450.534 743.737 451.108 743.737 452.097V452.136C743.737 452.756 743.101 452.744 741.533 452.926C739.879 453.119 738.186 453.551 738.186 455.534C738.186 457.25 739.476 458.193 741.135 458.193ZM741.504 456.83C740.544 456.83 739.851 456.398 739.851 455.557C739.851 454.648 740.658 454.324 741.641 454.193C742.192 454.119 743.499 453.972 743.743 453.727V454.852C743.743 455.886 742.919 456.83 741.504 456.83ZM762.183 452.182C762.183 448.46 759.956 446.205 756.945 446.205C753.922 446.205 751.7 448.46 751.7 452.182C751.7 455.898 753.922 458.159 756.945 458.159C759.956 458.159 762.183 455.903 762.183 452.182ZM760.445 452.182C760.445 455.017 758.945 456.557 756.945 456.557C754.939 456.557 753.445 455.017 753.445 452.182C753.445 449.347 754.939 447.807 756.945 447.807C758.945 447.807 760.445 449.347 760.445 452.182ZM763.548 458H764.094C765.997 458 766.696 456.591 766.832 453.705L766.969 450.739H769.821V458H771.486V449.273H765.395L765.241 453.136C765.134 455.83 764.827 456.528 763.855 456.528H763.543L763.548 458ZM777.513 458.176C779.416 458.176 780.763 457.239 781.149 455.818L779.541 455.528C779.234 456.352 778.496 456.773 777.53 456.773C776.075 456.773 775.098 455.83 775.053 454.148H781.257V453.545C781.257 450.392 779.371 449.159 777.393 449.159C774.962 449.159 773.359 451.011 773.359 453.693C773.359 456.403 774.939 458.176 777.513 458.176ZM775.058 452.875C775.126 451.636 776.024 450.562 777.405 450.562C778.723 450.562 779.587 451.54 779.592 452.875H775.058ZM784.807 449.273H783.142V458H784.807V454.375H788.585V458H790.244V449.273H788.585V452.903H784.807V449.273ZM795.057 458.193C796.5 458.193 797.312 457.46 797.636 456.807H797.705V458H799.364V452.205C799.364 449.665 797.364 449.159 795.977 449.159C794.398 449.159 792.943 449.795 792.375 451.386L793.972 451.75C794.222 451.131 794.858 450.534 796 450.534C797.097 450.534 797.659 451.108 797.659 452.097V452.136C797.659 452.756 797.023 452.744 795.455 452.926C793.801 453.119 792.108 453.551 792.108 455.534C792.108 457.25 793.398 458.193 795.057 458.193ZM795.426 456.83C794.466 456.83 793.773 456.398 793.773 455.557C793.773 454.648 794.58 454.324 795.562 454.193C796.114 454.119 797.42 453.972 797.665 453.727V454.852C797.665 455.886 796.841 456.83 795.426 456.83ZM816.105 452.182C816.105 448.46 813.878 446.205 810.866 446.205C807.844 446.205 805.622 448.46 805.622 452.182C805.622 455.898 807.844 458.159 810.866 458.159C813.878 458.159 816.105 455.903 816.105 452.182ZM814.366 452.182C814.366 455.017 812.866 456.557 810.866 456.557C808.861 456.557 807.366 455.017 807.366 452.182C807.366 449.347 808.861 447.807 810.866 447.807C812.866 447.807 814.366 449.347 814.366 452.182ZM817.47 458H818.016C819.919 458 820.618 456.591 820.754 453.705L820.891 450.739H823.743V458H825.408V449.273H819.317L819.163 453.136C819.055 455.83 818.749 456.528 817.777 456.528H817.464L817.47 458ZM831.435 458.176C833.338 458.176 834.685 457.239 835.071 455.818L833.463 455.528C833.156 456.352 832.418 456.773 831.452 456.773C829.997 456.773 829.02 455.83 828.974 454.148H835.179V453.545C835.179 450.392 833.293 449.159 831.315 449.159C828.884 449.159 827.281 451.011 827.281 453.693C827.281 456.403 828.861 458.176 831.435 458.176ZM828.98 452.875C829.048 451.636 829.946 450.562 831.327 450.562C832.645 450.562 833.509 451.54 833.514 452.875H828.98ZM837.064 458H838.763V454.511H839.865L842.496 458H844.604L841.183 453.517L844.564 449.273H842.462L839.581 452.932H838.763V449.273H837.064V458ZM849.24 458.176C851.303 458.176 852.638 456.938 852.825 455.239H851.172C850.956 456.182 850.223 456.739 849.251 456.739C847.814 456.739 846.888 455.54 846.888 453.636C846.888 451.767 847.831 450.591 849.251 450.591C850.331 450.591 850.99 451.273 851.172 452.091H852.825C852.643 450.33 851.206 449.159 849.223 449.159C846.763 449.159 845.172 451.011 845.172 453.676C845.172 456.307 846.706 458.176 849.24 458.176ZM854.642 458H856.341V449.273H854.642V458ZM855.5 447.926C856.085 447.926 856.574 447.472 856.574 446.915C856.574 446.358 856.085 445.898 855.5 445.898C854.909 445.898 854.426 446.358 854.426 446.915C854.426 447.472 854.909 447.926 855.5 447.926ZM859.267 458H860.966V449.273H859.267V458ZM858.455 447.903C859.023 447.903 859.455 447.443 859.455 446.915C859.455 446.352 859.023 445.92 858.455 445.92C857.92 445.92 857.449 446.352 857.449 446.915C857.449 447.443 857.92 447.903 858.455 447.903ZM861.795 447.903C862.364 447.903 862.795 447.443 862.795 446.915C862.795 446.352 862.364 445.92 861.795 445.92C861.261 445.92 860.79 446.352 860.79 446.915C860.79 447.443 861.261 447.903 861.795 447.903ZM863.251 458H867.422C869.331 458 870.45 457.034 870.45 455.648C870.45 454.352 869.456 453.557 868.291 453.42C869.365 453.216 870.075 452.625 870.075 451.602C870.075 450.17 868.837 449.273 866.871 449.273H863.251V458ZM864.848 456.58V454.153H867.422C868.263 454.153 868.768 454.648 868.768 455.46C868.768 456.153 868.263 456.58 867.422 456.58H864.848ZM864.848 452.909V450.71H866.871C867.837 450.71 868.422 451.114 868.422 451.784C868.422 452.483 867.842 452.909 866.888 452.909H864.848ZM873.979 449.273H872.314V458H873.979V454.375H877.757V458H879.416V449.273H877.757V452.903H873.979V449.273ZM884.229 458.193C885.672 458.193 886.484 457.46 886.808 456.807H886.876V458H888.536V452.205C888.536 449.665 886.536 449.159 885.149 449.159C883.57 449.159 882.115 449.795 881.547 451.386L883.143 451.75C883.393 451.131 884.03 450.534 885.172 450.534C886.268 450.534 886.831 451.108 886.831 452.097V452.136C886.831 452.756 886.195 452.744 884.626 452.926C882.973 453.119 881.28 453.551 881.28 455.534C881.28 457.25 882.57 458.193 884.229 458.193ZM884.598 456.83C883.638 456.83 882.945 456.398 882.945 455.557C882.945 454.648 883.751 454.324 884.734 454.193C885.286 454.119 886.592 453.972 886.837 453.727V454.852C886.837 455.886 886.013 456.83 884.598 456.83Z" fill="#111111"/>
    <rect x="88" y="407" width="928" height="1.00173" fill="#C4C7CC"/>
    <rect x="88" y="408" width="408" height="1.00002" transform="rotate(-90 88 408)" fill="#C4C7CC"/>
    <rect x="550" y="407" width="407" height="1.00002" transform="rotate(-90 550 407)" fill="#C4C7CC"/>
    <path d="M7.24006 8.99148V7.96875H0.792614V8.99148H1.64489C1.39773 9.29403 1.2571 9.68182 1.25284 10.0526C1.2571 11.3778 2.27557 12.1193 4.01847 12.1193C5.77841 12.1193 6.83097 11.4119 6.8608 9.8608H5.47585C5.46307 10.6619 4.86648 10.9773 4.01847 10.9773C3.12784 10.9773 2.62074 10.6108 2.61648 10.0057C2.62074 9.63494 2.7571 9.30682 3.08949 8.99148H7.24006ZM4.05256 4.27841C4.90483 4.27841 5.33523 4.64489 5.33097 5.20739C5.33523 5.56108 5.14347 5.8679 4.89205 6.16193H0.792614V7.19744H7.24006V6.16193H6.32812C6.53267 5.8679 6.64773 5.52273 6.64347 5.1733C6.64773 3.88636 5.70597 3.15341 4.04403 3.15341C2.14773 3.15341 1.37642 4.12926 1.34233 5.39062H2.72301C2.73153 4.71307 3.13636 4.27841 4.05256 4.27841ZM12.2379 3.27273H10.9552L8.77769 4.69602V5.95739L10.8658 4.59375H10.9169V12H12.2379V3.27273ZM14.4755 10.2955H18.6133V12H19.8704V10.2955H21.0252V9.17898H19.8704V3.27273H18.2468L14.4755 9.23011V10.2955ZM18.6218 9.17898H15.8562V9.1108L18.5536 4.84091H18.6218V9.17898ZM25.6086 12.1449C27.6242 12.1449 28.8046 10.5 28.8046 7.64062C28.8046 4.80256 27.6072 3.15341 25.6086 3.15341C23.6058 3.15341 22.4126 4.7983 22.4083 7.64062C22.4083 10.4957 23.5887 12.1406 25.6086 12.1449ZM25.6086 11.0071C24.4282 11.0071 23.7166 9.82244 23.7166 7.64062C23.7208 5.46733 24.4325 4.26989 25.6086 4.26989C26.7805 4.26989 27.4964 5.46733 27.4964 7.64062C27.4964 9.82244 26.7848 11.0071 25.6086 11.0071ZM32.0511 10.8068H30.8238L30.7812 11.2841C30.6832 12.4389 30.4105 13.6023 30.2954 14.1307H31.1988C31.4034 13.5724 31.8551 12.294 31.9872 11.2713L32.0511 10.8068ZM36.4513 12.1449C38.4669 12.1449 39.6473 10.5 39.6473 7.64062C39.6473 4.80256 38.4499 3.15341 36.4513 3.15341C34.4484 3.15341 33.2553 4.7983 33.251 7.64062C33.251 10.4957 34.4314 12.1406 36.4513 12.1449ZM36.4513 11.0071C35.2709 11.0071 34.5592 9.82244 34.5592 7.64062C34.5635 5.46733 35.2751 4.26989 36.4513 4.26989C37.6232 4.26989 38.3391 5.46733 38.3391 7.64062C38.3391 9.82244 37.6274 11.0071 36.4513 11.0071ZM44.2574 12.1449C46.273 12.1449 47.4534 10.5 47.4534 7.64062C47.4534 4.80256 46.256 3.15341 44.2574 3.15341C42.2545 3.15341 41.0614 4.7983 41.0571 7.64062C41.0571 10.4957 42.2375 12.1406 44.2574 12.1449ZM44.2574 11.0071C43.077 11.0071 42.3653 9.82244 42.3653 7.64062C42.3696 5.46733 43.0812 4.26989 44.2574 4.26989C45.4292 4.26989 46.1452 5.46733 46.1452 7.64062C46.1452 9.82244 45.4335 11.0071 44.2574 11.0071ZM52.0635 12.1449C54.0791 12.1449 55.2595 10.5 55.2595 7.64062C55.2595 4.80256 54.062 3.15341 52.0635 3.15341C50.0606 3.15341 48.8674 4.7983 48.8632 7.64062C48.8632 10.4957 50.0436 12.1406 52.0635 12.1449ZM52.0635 11.0071C50.8831 11.0071 50.1714 9.82244 50.1714 7.64062C50.1757 5.46733 50.8873 4.26989 52.0635 4.26989C53.2353 4.26989 53.9512 5.46733 53.9512 7.64062C53.9512 9.82244 53.2396 11.0071 52.0635 11.0071ZM58.5059 10.8068H57.2787L57.236 11.2841C57.138 12.4389 56.8653 13.6023 56.7502 14.1307H57.6537C57.8582 13.5724 58.3099 12.294 58.442 11.2713L58.5059 10.8068ZM62.9061 12.1449C64.9217 12.1449 66.1021 10.5 66.1021 7.64062C66.1021 4.80256 64.9047 3.15341 62.9061 3.15341C60.9033 3.15341 59.7101 4.7983 59.7058 7.64062C59.7058 10.4957 60.8862 12.1406 62.9061 12.1449ZM62.9061 11.0071C61.7257 11.0071 61.0141 9.82244 61.0141 7.64062C61.0183 5.46733 61.73 4.26989 62.9061 4.26989C64.078 4.26989 64.7939 5.46733 64.7939 7.64062C64.7939 9.82244 64.0823 11.0071 62.9061 11.0071ZM70.7122 12.1449C72.7278 12.1449 73.9082 10.5 73.9082 7.64062C73.9082 4.80256 72.7108 3.15341 70.7122 3.15341C68.7094 3.15341 67.5162 4.7983 67.5119 7.64062C67.5119 10.4957 68.6923 12.1406 70.7122 12.1449ZM70.7122 11.0071C69.5318 11.0071 68.8202 9.82244 68.8202 7.64062C68.8244 5.46733 69.5361 4.26989 70.7122 4.26989C71.8841 4.26989 72.6 5.46733 72.6 7.64062C72.6 9.82244 71.8884 11.0071 70.7122 11.0071Z" fill="#111111"/>
    <path d="M7.24006 64.9915V63.9688H0.792614V64.9915H1.64489C1.39773 65.294 1.2571 65.6818 1.25284 66.0526C1.2571 67.3778 2.27557 68.1193 4.01847 68.1193C5.77841 68.1193 6.83097 67.4119 6.8608 65.8608H5.47585C5.46307 66.6619 4.86648 66.9773 4.01847 66.9773C3.12784 66.9773 2.62074 66.6108 2.61648 66.0057C2.62074 65.6349 2.7571 65.3068 3.08949 64.9915H7.24006ZM4.05256 60.2784C4.90483 60.2784 5.33523 60.6449 5.33097 61.2074C5.33523 61.5611 5.14347 61.8679 4.89205 62.1619H0.792614V63.1974H7.24006V62.1619H6.32812C6.53267 61.8679 6.64773 61.5227 6.64347 61.1733C6.64773 59.8864 5.70597 59.1534 4.04403 59.1534C2.14773 59.1534 1.37642 60.1293 1.34233 61.3906H2.72301C2.73153 60.7131 3.13636 60.2784 4.05256 60.2784ZM12.2379 59.2727H10.9552L8.77769 60.696V61.9574L10.8658 60.5938H10.9169V68H12.2379V59.2727ZM14.6587 68H20.403V66.8707H16.474V66.8068L18.2084 64.9915C19.8064 63.3764 20.2624 62.6051 20.2624 61.6293C20.2624 60.2273 19.1204 59.1534 17.4755 59.1534C15.8434 59.1534 14.6502 60.2102 14.6502 61.804H15.9073C15.903 60.8665 16.5081 60.2528 17.4499 60.2528C18.3363 60.2528 19.0096 60.7983 19.0096 61.6676C19.0096 62.4389 18.5493 62.9929 17.6118 63.9858L14.6587 67.0455V68ZM25.1164 68.1449C27.1321 68.1449 28.3125 66.5 28.3125 63.6406C28.3125 60.8026 27.115 59.1534 25.1164 59.1534C23.1136 59.1534 21.9204 60.7983 21.9162 63.6406C21.9162 66.4957 23.0965 68.1406 25.1164 68.1449ZM25.1164 67.0071C23.936 67.0071 23.2244 65.8224 23.2244 63.6406C23.2287 61.4673 23.9403 60.2699 25.1164 60.2699C26.2883 60.2699 27.0042 61.4673 27.0042 63.6406C27.0042 65.8224 26.2926 67.0071 25.1164 67.0071ZM31.5589 66.8068H30.3316L30.289 67.2841C30.191 68.4389 29.9183 69.6023 29.8032 70.1307H30.7066C30.9112 69.5724 31.3629 68.294 31.495 67.2713L31.5589 66.8068ZM35.9591 68.1449C37.9747 68.1449 39.1551 66.5 39.1551 63.6406C39.1551 60.8026 37.9577 59.1534 35.9591 59.1534C33.9562 59.1534 32.7631 60.7983 32.7588 63.6406C32.7588 66.4957 33.9392 68.1406 35.9591 68.1449ZM35.9591 67.0071C34.7787 67.0071 34.067 65.8224 34.067 63.6406C34.0713 61.4673 34.783 60.2699 35.9591 60.2699C37.131 60.2699 37.8469 61.4673 37.8469 63.6406C37.8469 65.8224 37.1352 67.0071 35.9591 67.0071ZM43.7652 68.1449C45.7808 68.1449 46.9612 66.5 46.9612 63.6406C46.9612 60.8026 45.7638 59.1534 43.7652 59.1534C41.7623 59.1534 40.5692 60.7983 40.5649 63.6406C40.5649 66.4957 41.7453 68.1406 43.7652 68.1449ZM43.7652 67.0071C42.5848 67.0071 41.8731 65.8224 41.8731 63.6406C41.8774 61.4673 42.589 60.2699 43.7652 60.2699C44.9371 60.2699 45.653 61.4673 45.653 63.6406C45.653 65.8224 44.9413 67.0071 43.7652 67.0071ZM51.5713 68.1449C53.5869 68.1449 54.7673 66.5 54.7673 63.6406C54.7673 60.8026 53.5699 59.1534 51.5713 59.1534C49.5684 59.1534 48.3753 60.7983 48.371 63.6406C48.371 66.4957 49.5514 68.1406 51.5713 68.1449ZM51.5713 67.0071C50.3909 67.0071 49.6792 65.8224 49.6792 63.6406C49.6835 61.4673 50.3951 60.2699 51.5713 60.2699C52.7432 60.2699 53.4591 61.4673 53.4591 63.6406C53.4591 65.8224 52.7474 67.0071 51.5713 67.0071ZM58.0137 66.8068H56.7865L56.7438 67.2841C56.6458 68.4389 56.3731 69.6023 56.2581 70.1307H57.1615C57.366 69.5724 57.8177 68.294 57.9498 67.2713L58.0137 66.8068ZM62.4139 68.1449C64.4296 68.1449 65.61 66.5 65.61 63.6406C65.61 60.8026 64.4125 59.1534 62.4139 59.1534C60.4111 59.1534 59.2179 60.7983 59.2137 63.6406C59.2137 66.4957 60.394 68.1406 62.4139 68.1449ZM62.4139 67.0071C61.2335 67.0071 60.5219 65.8224 60.5219 63.6406C60.5262 61.4673 61.2378 60.2699 62.4139 60.2699C63.5858 60.2699 64.3017 61.4673 64.3017 63.6406C64.3017 65.8224 63.5901 67.0071 62.4139 67.0071ZM70.22 68.1449C72.2357 68.1449 73.416 66.5 73.416 63.6406C73.416 60.8026 72.2186 59.1534 70.22 59.1534C68.2172 59.1534 67.024 60.7983 67.0197 63.6406C67.0197 66.4957 68.2001 68.1406 70.22 68.1449ZM70.22 67.0071C69.0396 67.0071 68.328 65.8224 68.328 63.6406C68.3322 61.4673 69.0439 60.2699 70.22 60.2699C71.3919 60.2699 72.1078 61.4673 72.1078 63.6406C72.1078 65.8224 71.3962 67.0071 70.22 67.0071Z" fill="#111111"/>
    <path d="M7.24006 120.991V119.969H0.792614V120.991H1.64489C1.39773 121.294 1.2571 121.682 1.25284 122.053C1.2571 123.378 2.27557 124.119 4.01847 124.119C5.77841 124.119 6.83097 123.412 6.8608 121.861H5.47585C5.46307 122.662 4.86648 122.977 4.01847 122.977C3.12784 122.977 2.62074 122.611 2.61648 122.006C2.62074 121.635 2.7571 121.307 3.08949 120.991H7.24006ZM4.05256 116.278C4.90483 116.278 5.33523 116.645 5.33097 117.207C5.33523 117.561 5.14347 117.868 4.89205 118.162H0.792614V119.197H7.24006V118.162H6.32812C6.53267 117.868 6.64773 117.523 6.64347 117.173C6.64773 115.886 5.70597 115.153 4.04403 115.153C2.14773 115.153 1.37642 116.129 1.34233 117.391H2.72301C2.73153 116.713 3.13636 116.278 4.05256 116.278ZM12.2379 115.273H10.9552L8.77769 116.696V117.957L10.8658 116.594H10.9169V124H12.2379V115.273ZM17.6971 124.145C19.7127 124.145 20.8931 122.5 20.8931 119.641C20.8931 116.803 19.6956 115.153 17.6971 115.153C15.6942 115.153 14.501 116.798 14.4968 119.641C14.4968 122.496 15.6772 124.141 17.6971 124.145ZM17.6971 123.007C16.5167 123.007 15.805 121.822 15.805 119.641C15.8093 117.467 16.5209 116.27 17.6971 116.27C18.8689 116.27 19.5848 117.467 19.5848 119.641C19.5848 121.822 18.8732 123.007 17.6971 123.007ZM25.5032 124.145C27.5188 124.145 28.6992 122.5 28.6992 119.641C28.6992 116.803 27.5017 115.153 25.5032 115.153C23.5003 115.153 22.3071 116.798 22.3029 119.641C22.3029 122.496 23.4833 124.141 25.5032 124.145ZM25.5032 123.007C24.3228 123.007 23.6111 121.822 23.6111 119.641C23.6154 117.467 24.327 116.27 25.5032 116.27C26.675 116.27 27.3909 117.467 27.3909 119.641C27.3909 121.822 26.6793 123.007 25.5032 123.007ZM31.9456 122.807H30.7183L30.6757 123.284C30.5777 124.439 30.305 125.602 30.1899 126.131H31.0933C31.2979 125.572 31.7496 124.294 31.8817 123.271L31.9456 122.807ZM36.3458 124.145C38.3614 124.145 39.5418 122.5 39.5418 119.641C39.5418 116.803 38.3444 115.153 36.3458 115.153C34.343 115.153 33.1498 116.798 33.1455 119.641C33.1455 122.496 34.3259 124.141 36.3458 124.145ZM36.3458 123.007C35.1654 123.007 34.4538 121.822 34.4538 119.641C34.458 117.467 35.1697 116.27 36.3458 116.27C37.5177 116.27 38.2336 117.467 38.2336 119.641C38.2336 121.822 37.5219 123.007 36.3458 123.007ZM44.1519 124.145C46.1675 124.145 47.3479 122.5 47.3479 119.641C47.3479 116.803 46.1505 115.153 44.1519 115.153C42.1491 115.153 40.9559 116.798 40.9516 119.641C40.9516 122.496 42.132 124.141 44.1519 124.145ZM44.1519 123.007C42.9715 123.007 42.2599 121.822 42.2599 119.641C42.2641 117.467 42.9758 116.27 44.1519 116.27C45.3238 116.27 46.0397 117.467 46.0397 119.641C46.0397 121.822 45.328 123.007 44.1519 123.007ZM51.958 124.145C53.9736 124.145 55.154 122.5 55.154 119.641C55.154 116.803 53.9566 115.153 51.958 115.153C49.9552 115.153 48.762 116.798 48.7577 119.641C48.7577 122.496 49.9381 124.141 51.958 124.145ZM51.958 123.007C50.7776 123.007 50.0659 121.822 50.0659 119.641C50.0702 117.467 50.7819 116.27 51.958 116.27C53.1299 116.27 53.8458 117.467 53.8458 119.641C53.8458 121.822 53.1341 123.007 51.958 123.007ZM58.4005 122.807H57.1732L57.1306 123.284C57.0326 124.439 56.7598 125.602 56.6448 126.131H57.5482C57.7527 125.572 58.2044 124.294 58.3365 123.271L58.4005 122.807ZM62.8007 124.145C64.8163 124.145 65.9967 122.5 65.9967 119.641C65.9967 116.803 64.7992 115.153 62.8007 115.153C60.7978 115.153 59.6046 116.798 59.6004 119.641C59.6004 122.496 60.7808 124.141 62.8007 124.145ZM62.8007 123.007C61.6203 123.007 60.9086 121.822 60.9086 119.641C60.9129 117.467 61.6245 116.27 62.8007 116.27C63.9725 116.27 64.6884 117.467 64.6884 119.641C64.6884 121.822 63.9768 123.007 62.8007 123.007ZM70.6067 124.145C72.6224 124.145 73.8028 122.5 73.8028 119.641C73.8028 116.803 72.6053 115.153 70.6067 115.153C68.6039 115.153 67.4107 116.798 67.4065 119.641C67.4065 122.496 68.5869 124.141 70.6067 124.145ZM70.6067 123.007C69.4263 123.007 68.7147 121.822 68.7147 119.641C68.719 117.467 69.4306 116.27 70.6067 116.27C71.7786 116.27 72.4945 117.467 72.4945 119.641C72.4945 121.822 71.7829 123.007 70.6067 123.007Z" fill="#111111"/>
    <path d="M11.2401 176.991V175.969H4.79261V176.991H5.64489C5.39773 177.294 5.2571 177.682 5.25284 178.053C5.2571 179.378 6.27557 180.119 8.01847 180.119C9.77841 180.119 10.831 179.412 10.8608 177.861H9.47585C9.46307 178.662 8.86648 178.977 8.01847 178.977C7.12784 178.977 6.62074 178.611 6.61648 178.006C6.62074 177.635 6.7571 177.307 7.08949 176.991H11.2401ZM8.05256 172.278C8.90483 172.278 9.33523 172.645 9.33097 173.207C9.33523 173.561 9.14347 173.868 8.89205 174.162H4.79261V175.197H11.2401V174.162H10.3281C10.5327 173.868 10.6477 173.523 10.6435 173.173C10.6477 171.886 9.70597 171.153 8.04403 171.153C6.14773 171.153 5.37642 172.129 5.34233 173.391H6.72301C6.73153 172.713 7.13636 172.278 8.05256 172.278ZM15.8757 180.119C17.691 180.119 18.9737 179.088 18.9822 177.673C18.9737 176.574 18.2024 175.649 17.2265 175.474V175.423C18.0746 175.219 18.6498 174.422 18.6584 173.48C18.6498 172.146 17.4737 171.153 15.8757 171.153C14.2606 171.153 13.0845 172.146 13.093 173.48C13.0845 174.418 13.6598 175.219 14.5248 175.423V175.474C13.5319 175.649 12.7606 176.574 12.7692 177.673C12.7606 179.088 14.0433 180.119 15.8757 180.119ZM15.8757 179.041C14.7848 179.041 14.0944 178.462 14.103 177.588C14.0944 176.68 14.8444 176.033 15.8757 176.033C16.8899 176.033 17.6399 176.68 17.6484 177.588C17.6399 178.462 16.9538 179.041 15.8757 179.041ZM15.8757 174.98C14.9936 174.98 14.3672 174.422 14.3757 173.591C14.3672 172.773 14.9723 172.232 15.8757 172.232C16.7621 172.232 17.3672 172.773 17.3757 173.591C17.3672 174.422 16.745 174.98 15.8757 174.98ZM23.6072 180.145C25.6228 180.145 26.8032 178.5 26.8032 175.641C26.8032 172.803 25.6058 171.153 23.6072 171.153C21.6044 171.153 20.4112 172.798 20.4069 175.641C20.4069 178.496 21.5873 180.141 23.6072 180.145ZM23.6072 179.007C22.4268 179.007 21.7152 177.822 21.7152 175.641C21.7194 173.467 22.4311 172.27 23.6072 172.27C24.7791 172.27 25.495 173.467 25.495 175.641C25.495 177.822 24.7834 179.007 23.6072 179.007ZM30.0497 178.807H28.8224L28.7798 179.284C28.6818 180.439 28.409 181.602 28.294 182.131H29.1974C29.4019 181.572 29.8537 180.294 29.9858 179.271L30.0497 178.807ZM34.4499 180.145C36.4655 180.145 37.6459 178.5 37.6459 175.641C37.6459 172.803 36.4485 171.153 34.4499 171.153C32.447 171.153 31.2538 172.798 31.2496 175.641C31.2496 178.496 32.43 180.141 34.4499 180.145ZM34.4499 179.007C33.2695 179.007 32.5578 177.822 32.5578 175.641C32.5621 173.467 33.2737 172.27 34.4499 172.27C35.6217 172.27 36.3377 173.467 36.3377 175.641C36.3377 177.822 35.626 179.007 34.4499 179.007ZM42.256 180.145C44.2716 180.145 45.452 178.5 45.452 175.641C45.452 172.803 44.2545 171.153 42.256 171.153C40.2531 171.153 39.0599 172.798 39.0557 175.641C39.0557 178.496 40.2361 180.141 42.256 180.145ZM42.256 179.007C41.0756 179.007 40.3639 177.822 40.3639 175.641C40.3682 173.467 41.0798 172.27 42.256 172.27C43.4278 172.27 44.1437 173.467 44.1437 175.641C44.1437 177.822 43.4321 179.007 42.256 179.007ZM50.0621 180.145C52.0777 180.145 53.2581 178.5 53.2581 175.641C53.2581 172.803 52.0606 171.153 50.0621 171.153C48.0592 171.153 46.866 172.798 46.8618 175.641C46.8618 178.496 48.0422 180.141 50.0621 180.145ZM50.0621 179.007C48.8817 179.007 48.17 177.822 48.17 175.641C48.1743 173.467 48.8859 172.27 50.0621 172.27C51.2339 172.27 51.9498 173.467 51.9498 175.641C51.9498 177.822 51.2382 179.007 50.0621 179.007ZM56.5045 178.807H55.2772L55.2346 179.284C55.1366 180.439 54.8639 181.602 54.7488 182.131H55.6522C55.8568 181.572 56.3085 180.294 56.4406 179.271L56.5045 178.807ZM60.9047 180.145C62.9203 180.145 64.1007 178.5 64.1007 175.641C64.1007 172.803 62.9033 171.153 60.9047 171.153C58.9019 171.153 57.7087 172.798 57.7044 175.641C57.7044 178.496 58.8848 180.141 60.9047 180.145ZM60.9047 179.007C59.7243 179.007 59.0127 177.822 59.0127 175.641C59.0169 173.467 59.7286 172.27 60.9047 172.27C62.0766 172.27 62.7925 173.467 62.7925 175.641C62.7925 177.822 62.0809 179.007 60.9047 179.007ZM68.7108 180.145C70.7264 180.145 71.9068 178.5 71.9068 175.641C71.9068 172.803 70.7094 171.153 68.7108 171.153C66.708 171.153 65.5148 172.798 65.5105 175.641C65.5105 178.496 66.6909 180.141 68.7108 180.145ZM68.7108 179.007C67.5304 179.007 66.8188 177.822 66.8188 175.641C66.823 173.467 67.5347 172.27 68.7108 172.27C69.8827 172.27 70.5986 173.467 70.5986 175.641C70.5986 177.822 69.8869 179.007 68.7108 179.007Z" fill="#111111"/>
    <path d="M11.2401 232.991V231.969H4.79261V232.991H5.64489C5.39773 233.294 5.2571 233.682 5.25284 234.053C5.2571 235.378 6.27557 236.119 8.01847 236.119C9.77841 236.119 10.831 235.412 10.8608 233.861H9.47585C9.46307 234.662 8.86648 234.977 8.01847 234.977C7.12784 234.977 6.62074 234.611 6.61648 234.006C6.62074 233.635 6.7571 233.307 7.08949 232.991H11.2401ZM8.05256 228.278C8.90483 228.278 9.33523 228.645 9.33097 229.207C9.33523 229.561 9.14347 229.868 8.89205 230.162H4.79261V231.197H11.2401V230.162H10.3281C10.5327 229.868 10.6477 229.523 10.6435 229.173C10.6477 227.886 9.70597 227.153 8.04403 227.153C6.14773 227.153 5.37642 228.129 5.34233 229.391H6.72301C6.73153 228.713 7.13636 228.278 8.05256 228.278ZM15.9737 236.119C17.7976 236.136 19.0078 234.824 19.0035 233.149C19.0078 231.479 17.7933 230.281 16.2805 230.281C15.3601 230.281 14.5632 230.724 14.1158 231.462H14.0518C14.0561 229.459 14.8061 228.287 16.0845 228.287C16.924 228.287 17.4524 228.794 17.6314 229.54H18.9311C18.7308 228.138 17.6442 227.132 16.0845 227.132C14.0561 227.132 12.7905 228.875 12.7905 231.93C12.7905 235.143 14.4226 236.107 15.9737 236.119ZM15.9694 235.011C14.9552 235.011 14.2138 234.159 14.2138 233.179C14.218 232.203 14.9936 231.351 15.9993 231.351C16.9964 231.351 17.7294 232.156 17.7251 233.166C17.7294 234.197 16.9666 235.011 15.9694 235.011ZM23.6541 236.145C25.6697 236.145 26.8501 234.5 26.8501 231.641C26.8501 228.803 25.6527 227.153 23.6541 227.153C21.6512 227.153 20.4581 228.798 20.4538 231.641C20.4538 234.496 21.6342 236.141 23.6541 236.145ZM23.6541 235.007C22.4737 235.007 21.762 233.822 21.762 231.641C21.7663 229.467 22.478 228.27 23.6541 228.27C24.826 228.27 25.5419 229.467 25.5419 231.641C25.5419 233.822 24.8302 235.007 23.6541 235.007ZM30.0965 234.807H28.8693L28.8267 235.284C28.7287 236.439 28.4559 237.602 28.3409 238.131H29.2443C29.4488 237.572 29.9005 236.294 30.0326 235.271L30.0965 234.807ZM34.4967 236.145C36.5124 236.145 37.6928 234.5 37.6928 231.641C37.6928 228.803 36.4953 227.153 34.4967 227.153C32.4939 227.153 31.3007 228.798 31.2965 231.641C31.2965 234.496 32.4769 236.141 34.4967 236.145ZM34.4967 235.007C33.3163 235.007 32.6047 233.822 32.6047 231.641C32.609 229.467 33.3206 228.27 34.4967 228.27C35.6686 228.27 36.3845 229.467 36.3845 231.641C36.3845 233.822 35.6729 235.007 34.4967 235.007ZM42.3028 236.145C44.3185 236.145 45.4989 234.5 45.4989 231.641C45.4989 228.803 44.3014 227.153 42.3028 227.153C40.3 227.153 39.1068 228.798 39.1026 231.641C39.1026 234.496 40.283 236.141 42.3028 236.145ZM42.3028 235.007C41.1224 235.007 40.4108 233.822 40.4108 231.641C40.4151 229.467 41.1267 228.27 42.3028 228.27C43.4747 228.27 44.1906 229.467 44.1906 231.641C44.1906 233.822 43.479 235.007 42.3028 235.007ZM50.1089 236.145C52.1246 236.145 53.305 234.5 53.305 231.641C53.305 228.803 52.1075 227.153 50.1089 227.153C48.1061 227.153 46.9129 228.798 46.9087 231.641C46.9087 234.496 48.089 236.141 50.1089 236.145ZM50.1089 235.007C48.9285 235.007 48.2169 233.822 48.2169 231.641C48.2212 229.467 48.9328 228.27 50.1089 228.27C51.2808 228.27 51.9967 229.467 51.9967 231.641C51.9967 233.822 51.2851 235.007 50.1089 235.007ZM56.5514 234.807H55.3241L55.2815 235.284C55.1835 236.439 54.9108 237.602 54.7957 238.131H55.6991C55.9037 237.572 56.3554 236.294 56.4875 235.271L56.5514 234.807ZM60.9516 236.145C62.9672 236.145 64.1476 234.5 64.1476 231.641C64.1476 228.803 62.9502 227.153 60.9516 227.153C58.9487 227.153 57.7556 228.798 57.7513 231.641C57.7513 234.496 58.9317 236.141 60.9516 236.145ZM60.9516 235.007C59.7712 235.007 59.0595 233.822 59.0595 231.641C59.0638 229.467 59.7755 228.27 60.9516 228.27C62.1235 228.27 62.8394 229.467 62.8394 231.641C62.8394 233.822 62.1277 235.007 60.9516 235.007ZM68.7577 236.145C70.7733 236.145 71.9537 234.5 71.9537 231.641C71.9537 228.803 70.7563 227.153 68.7577 227.153C66.7548 227.153 65.5617 228.798 65.5574 231.641C65.5574 234.496 66.7378 236.141 68.7577 236.145ZM68.7577 235.007C67.5773 235.007 66.8656 233.822 66.8656 231.641C66.8699 229.467 67.5815 228.27 68.7577 228.27C69.9296 228.27 70.6455 229.467 70.6455 231.641C70.6455 233.822 69.9338 235.007 68.7577 235.007Z" fill="#111111"/>
    <path d="M11.2401 288.991V287.969H4.79261V288.991H5.64489C5.39773 289.294 5.2571 289.682 5.25284 290.053C5.2571 291.378 6.27557 292.119 8.01847 292.119C9.77841 292.119 10.831 291.412 10.8608 289.861H9.47585C9.46307 290.662 8.86648 290.977 8.01847 290.977C7.12784 290.977 6.62074 290.611 6.61648 290.006C6.62074 289.635 6.7571 289.307 7.08949 288.991H11.2401ZM8.05256 284.278C8.90483 284.278 9.33523 284.645 9.33097 285.207C9.33523 285.561 9.14347 285.868 8.89205 286.162H4.79261V287.197H11.2401V286.162H10.3281C10.5327 285.868 10.6477 285.523 10.6435 285.173C10.6477 283.886 9.70597 283.153 8.04403 283.153C6.14773 283.153 5.37642 284.129 5.34233 285.391H6.72301C6.73153 284.713 7.13636 284.278 8.05256 284.278ZM12.7436 290.295H16.8814V292H18.1385V290.295H19.2933V289.179H18.1385V283.273H16.5149L12.7436 289.23V290.295ZM16.8899 289.179H14.1243V289.111L16.8217 284.841H16.8899V289.179ZM23.8767 292.145C25.8924 292.145 27.0728 290.5 27.0728 287.641C27.0728 284.803 25.8753 283.153 23.8767 283.153C21.8739 283.153 20.6807 284.798 20.6765 287.641C20.6765 290.496 21.8569 292.141 23.8767 292.145ZM23.8767 291.007C22.6963 291.007 21.9847 289.822 21.9847 287.641C21.989 285.467 22.7006 284.27 23.8767 284.27C25.0486 284.27 25.7645 285.467 25.7645 287.641C25.7645 289.822 25.0529 291.007 23.8767 291.007ZM30.3192 290.807H29.0919L29.0493 291.284C28.9513 292.439 28.6786 293.602 28.5635 294.131H29.4669C29.6715 293.572 30.1232 292.294 30.2553 291.271L30.3192 290.807ZM34.7194 292.145C36.735 292.145 37.9154 290.5 37.9154 287.641C37.9154 284.803 36.718 283.153 34.7194 283.153C32.7166 283.153 31.5234 284.798 31.5191 287.641C31.5191 290.496 32.6995 292.141 34.7194 292.145ZM34.7194 291.007C33.539 291.007 32.8274 289.822 32.8274 287.641C32.8316 285.467 33.5433 284.27 34.7194 284.27C35.8913 284.27 36.6072 285.467 36.6072 287.641C36.6072 289.822 35.8955 291.007 34.7194 291.007ZM42.5255 292.145C44.5411 292.145 45.7215 290.5 45.7215 287.641C45.7215 284.803 44.5241 283.153 42.5255 283.153C40.5227 283.153 39.3295 284.798 39.3252 287.641C39.3252 290.496 40.5056 292.141 42.5255 292.145ZM42.5255 291.007C41.3451 291.007 40.6335 289.822 40.6335 287.641C40.6377 285.467 41.3494 284.27 42.5255 284.27C43.6974 284.27 44.4133 285.467 44.4133 287.641C44.4133 289.822 43.7016 291.007 42.5255 291.007ZM50.3316 292.145C52.3472 292.145 53.5276 290.5 53.5276 287.641C53.5276 284.803 52.3302 283.153 50.3316 283.153C48.3288 283.153 47.1356 284.798 47.1313 287.641C47.1313 290.496 48.3117 292.141 50.3316 292.145ZM50.3316 291.007C49.1512 291.007 48.4395 289.822 48.4395 287.641C48.4438 285.467 49.1555 284.27 50.3316 284.27C51.5035 284.27 52.2194 285.467 52.2194 287.641C52.2194 289.822 51.5077 291.007 50.3316 291.007ZM56.774 290.807H55.5468L55.5042 291.284C55.4061 292.439 55.1334 293.602 55.0184 294.131H55.9218C56.1263 293.572 56.578 292.294 56.7101 291.271L56.774 290.807ZM61.1742 292.145C63.1899 292.145 64.3703 290.5 64.3703 287.641C64.3703 284.803 63.1728 283.153 61.1742 283.153C59.1714 283.153 57.9782 284.798 57.974 287.641C57.974 290.496 59.1544 292.141 61.1742 292.145ZM61.1742 291.007C59.9938 291.007 59.2822 289.822 59.2822 287.641C59.2865 285.467 59.9981 284.27 61.1742 284.27C62.3461 284.27 63.062 285.467 63.062 287.641C63.062 289.822 62.3504 291.007 61.1742 291.007ZM68.9803 292.145C70.996 292.145 72.1764 290.5 72.1764 287.641C72.1764 284.803 70.9789 283.153 68.9803 283.153C66.9775 283.153 65.7843 284.798 65.7801 287.641C65.7801 290.496 66.9605 292.141 68.9803 292.145ZM68.9803 291.007C67.7999 291.007 67.0883 289.822 67.0883 287.641C67.0926 285.467 67.8042 284.27 68.9803 284.27C70.1522 284.27 70.8681 285.467 70.8681 287.641C70.8681 289.822 70.1565 291.007 68.9803 291.007Z" fill="#111111"/>
    <path d="M11.2401 344.991V343.969H4.79261V344.991H5.64489C5.39773 345.294 5.2571 345.682 5.25284 346.053C5.2571 347.378 6.27557 348.119 8.01847 348.119C9.77841 348.119 10.831 347.412 10.8608 345.861H9.47585C9.46307 346.662 8.86648 346.977 8.01847 346.977C7.12784 346.977 6.62074 346.611 6.61648 346.006C6.62074 345.635 6.7571 345.307 7.08949 344.991H11.2401ZM8.05256 340.278C8.90483 340.278 9.33523 340.645 9.33097 341.207C9.33523 341.561 9.14347 341.868 8.89205 342.162H4.79261V343.197H11.2401V342.162H10.3281C10.5327 341.868 10.6477 341.523 10.6435 341.173C10.6477 339.886 9.70597 339.153 8.04403 339.153C6.14773 339.153 5.37642 340.129 5.34233 341.391H6.72301C6.73153 340.713 7.13636 340.278 8.05256 340.278ZM12.9268 348H18.6712V346.871H14.7422V346.807L16.4765 344.991C18.0746 343.376 18.5305 342.605 18.5305 341.629C18.5305 340.227 17.3885 339.153 15.7436 339.153C14.1115 339.153 12.9183 340.21 12.9183 341.804H14.1754C14.1712 340.866 14.7763 340.253 15.718 340.253C16.6044 340.253 17.2777 340.798 17.2777 341.668C17.2777 342.439 16.8175 342.993 15.88 343.986L12.9268 347.045V348ZM23.3846 348.145C25.4002 348.145 26.5806 346.5 26.5806 343.641C26.5806 340.803 25.3831 339.153 23.3846 339.153C21.3817 339.153 20.1885 340.798 20.1843 343.641C20.1843 346.496 21.3647 348.141 23.3846 348.145ZM23.3846 347.007C22.2042 347.007 21.4925 345.822 21.4925 343.641C21.4968 341.467 22.2084 340.27 23.3846 340.27C24.5564 340.27 25.2723 341.467 25.2723 343.641C25.2723 345.822 24.5607 347.007 23.3846 347.007ZM29.827 346.807H28.5997L28.5571 347.284C28.4591 348.439 28.1864 349.602 28.0713 350.131H28.9747C29.1793 349.572 29.631 348.294 29.7631 347.271L29.827 346.807ZM34.2272 348.145C36.2428 348.145 37.4232 346.5 37.4232 343.641C37.4232 340.803 36.2258 339.153 34.2272 339.153C32.2244 339.153 31.0312 340.798 31.0269 343.641C31.0269 346.496 32.2073 348.141 34.2272 348.145ZM34.2272 347.007C33.0468 347.007 32.3352 345.822 32.3352 343.641C32.3394 341.467 33.0511 340.27 34.2272 340.27C35.3991 340.27 36.115 341.467 36.115 343.641C36.115 345.822 35.4034 347.007 34.2272 347.007ZM42.0333 348.145C44.0489 348.145 45.2293 346.5 45.2293 343.641C45.2293 340.803 44.0319 339.153 42.0333 339.153C40.0305 339.153 38.8373 340.798 38.833 343.641C38.833 346.496 40.0134 348.141 42.0333 348.145ZM42.0333 347.007C40.8529 347.007 40.1413 345.822 40.1413 343.641C40.1455 341.467 40.8572 340.27 42.0333 340.27C43.2052 340.27 43.9211 341.467 43.9211 343.641C43.9211 345.822 43.2094 347.007 42.0333 347.007ZM49.8394 348.145C51.855 348.145 53.0354 346.5 53.0354 343.641C53.0354 340.803 51.838 339.153 49.8394 339.153C47.8366 339.153 46.6434 340.798 46.6391 343.641C46.6391 346.496 47.8195 348.141 49.8394 348.145ZM49.8394 347.007C48.659 347.007 47.9474 345.822 47.9474 343.641C47.9516 341.467 48.6633 340.27 49.8394 340.27C51.0113 340.27 51.7272 341.467 51.7272 343.641C51.7272 345.822 51.0155 347.007 49.8394 347.007ZM56.2819 346.807H55.0546L55.012 347.284C54.914 348.439 54.6412 349.602 54.5262 350.131H55.4296C55.6341 349.572 56.0858 348.294 56.2179 347.271L56.2819 346.807ZM60.6821 348.145C62.6977 348.145 63.8781 346.5 63.8781 343.641C63.8781 340.803 62.6806 339.153 60.6821 339.153C58.6792 339.153 57.486 340.798 57.4818 343.641C57.4818 346.496 58.6622 348.141 60.6821 348.145ZM60.6821 347.007C59.5017 347.007 58.79 345.822 58.79 343.641C58.7943 341.467 59.5059 340.27 60.6821 340.27C61.8539 340.27 62.5698 341.467 62.5698 343.641C62.5698 345.822 61.8582 347.007 60.6821 347.007ZM68.4882 348.145C70.5038 348.145 71.6842 346.5 71.6842 343.641C71.6842 340.803 70.4867 339.153 68.4882 339.153C66.4853 339.153 65.2921 340.798 65.2879 343.641C65.2879 346.496 66.4683 348.141 68.4882 348.145ZM68.4882 347.007C67.3078 347.007 66.5961 345.822 66.5961 343.641C66.6004 341.467 67.312 340.27 68.4882 340.27C69.66 340.27 70.3759 341.467 70.3759 343.641C70.3759 345.822 69.6643 347.007 68.4882 347.007Z" fill="#111111"/>
    <path d="M67.2401 400.991V399.969H60.7926V400.991H61.6449C61.3977 401.294 61.2571 401.682 61.2528 402.053C61.2571 403.378 62.2756 404.119 64.0185 404.119C65.7784 404.119 66.831 403.412 66.8608 401.861H65.4759C65.4631 402.662 64.8665 402.977 64.0185 402.977C63.1278 402.977 62.6207 402.611 62.6165 402.006C62.6207 401.635 62.7571 401.307 63.0895 400.991H67.2401ZM64.0526 396.278C64.9048 396.278 65.3352 396.645 65.331 397.207C65.3352 397.561 65.1435 397.868 64.892 398.162H60.7926V399.197H67.2401V398.162H66.3281C66.5327 397.868 66.6477 397.523 66.6435 397.173C66.6477 395.886 65.706 395.153 64.044 395.153C62.1477 395.153 61.3764 396.129 61.3423 397.391H62.723C62.7315 396.713 63.1364 396.278 64.0526 396.278ZM71.9652 404.145C73.9808 404.145 75.1612 402.5 75.1612 399.641C75.1612 396.803 73.9638 395.153 71.9652 395.153C69.9623 395.153 68.7692 396.798 68.7649 399.641C68.7649 402.496 69.9453 404.141 71.9652 404.145ZM71.9652 403.007C70.7848 403.007 70.0731 401.822 70.0731 399.641C70.0774 397.467 70.789 396.27 71.9652 396.27C73.1371 396.27 73.853 397.467 73.853 399.641C73.853 401.822 73.1413 403.007 71.9652 403.007Z" fill="#111111"/>
    <path opacity="0.9" d="M164 243C164 241.895 164.895 241 166 241H210C211.105 241 212 241.895 212 243V407H164V243Z" fill="#00BFF2"/>
    <path opacity="0.9" d="M252 9C252 7.89543 252.895 7 254 7H298C299.105 7 300 7.89543 300 9V407H252V9Z" fill="#ED3024"/>
    <path opacity="0.9" d="M628 129C628 127.895 628.895 127 630 127H674C675.105 127 676 127.895 676 129V407H628V129Z" fill="#00BFF2"/>
    <path opacity="0.9" d="M716 149C716 147.895 716.895 147 718 147H762C763.105 147 764 147.895 764 149V407H716V149Z" fill="#ED3024"/>
    <path opacity="0.9" d="M804 225C804 223.895 804.895 223 806 223H850C851.105 223 852 223.895 852 225V407H804V225Z" fill="#FFBB00"/>
    <path opacity="0.9" d="M892 353C892 351.895 892.895 351 894 351H938C939.105 351 940 351.895 940 353V407H892V353Z" fill="#B3D245"/>
    <path opacity="0.9" d="M340 317C340 315.895 340.895 315 342 315H386C387.105 315 388 315.895 388 317V407H340V317Z" fill="#FFBB00"/>
    <path opacity="0.9" d="M428 285C428 283.895 428.895 283 430 283H474C475.105 283 476 283.895 476 285V407H428V285Z" fill="#B3D245"/>
</svg>
