<svg width="252" height="56" viewBox="0 0 252 56" fill="none" xmlns="http://www.w3.org/2000/svg">
    <rect opacity="0.35" width="252" height="56" fill="#EEEFF2"/>
    <path d="M8 50L42.5733 46.2814L77.1465 50L113.223 46.2814L143.287 50L178.23 8L210.178 46.2814L244 17.1304" stroke="#C4C7CC"/>
    <circle cx="143" cy="50" r="2" fill="#56B8AD"/>
    <circle cx="113" cy="46" r="2" fill="#56B8AD"/>
    <circle cx="76" cy="50" r="2" fill="#56B8AD"/>
    <path d="M44 46C44 47.1046 43.1046 48 42 48C40.8954 48 40 47.1046 40 46C40 44.8954 40.8954 44 42 44C43.1046 44 44 44.8954 44 46Z" fill="#56B8AD"/>
    <circle cx="8" cy="50" r="2" fill="#56B8AD"/>
    <circle cx="211" cy="46" r="4" fill="#56B8AD"/>
    <circle cx="244" cy="17" r="2" fill="#56B8AD"/>
    <rect y="55" width="252" height="1" fill="#C4C7CC"/>
    <circle cx="178" cy="8" r="2" fill="#56B8AD"/>
</svg>