<svg width="100" height="40" fill="none" xmlns="http://www.w3.org/2000/svg">
    <path d="M39 20C39 30.4934 30.4934 39 20 39C9.50659 39 1 30.4934 1 20C1 9.50659 9.50659 1 20 1C30.4934 1 39 9.50659 39 20Z" stroke="#00BFF2" stroke-width="2"/>
    <path fill-rule="evenodd" clip-rule="evenodd" d="M16 20V30H22.6667L26 26.6667V16.6667H19.3333V13.3333H26L22.6667 10H16V16.6667L19.3333 20H22.6667V26.6667H19.3333V20H16Z" fill="#111111"/>
    <path d="M63.06 15.82C61.76 15.82 60.8 16.22 60.22 17H59.74V15.82H57.56V26H59.82V21.24C59.82 19.1 60.94 17.92 63 17.92H63.92V15.82H63.06ZM68.3566 11.46H66.0366V13.64H68.3566V11.46ZM66.0566 15.82V26H68.3166V15.82H66.0566ZM80.9058 19.64C80.9058 17.08 79.5658 15.56 77.0858 15.56C75.7458 15.56 74.7658 15.98 74.1458 16.8H73.6658V15.82H71.4858V26H73.7458V20.56C73.7458 19.74 73.9858 19.04 74.4658 18.46C74.9658 17.88 75.6058 17.58 76.3858 17.58C77.8858 17.58 78.6458 18.42 78.6458 20.08V26H80.9058V19.64ZM91.1681 16.8H90.6881C90.0881 15.98 89.1081 15.56 87.7681 15.56C86.4281 15.56 85.3281 16.04 84.5081 17.02C83.6881 17.98 83.2881 19.22 83.2881 20.74C83.2881 22.26 83.6881 23.5 84.5081 24.46C85.3281 25.42 86.4081 25.9 87.7681 25.9C89.0681 25.9 90.0281 25.48 90.6081 24.66H91.0881V25.34C91.0881 27.32 90.1881 28.32 88.3881 28.32C86.9281 28.32 86.0881 27.84 85.9081 26.9H83.6681C83.9081 28.98 85.7081 30.18 88.4281 30.18C89.9281 30.18 91.1081 29.76 92.0081 28.92C92.9081 28.08 93.3481 26.94 93.3481 25.5V15.82H91.1681V16.8ZM88.3281 23.98C86.5881 23.98 85.5481 22.68 85.5481 20.74C85.5481 18.8 86.5881 17.48 88.3281 17.48C90.1481 17.48 91.1681 18.88 91.1681 20.74C91.1681 22.58 90.1481 23.98 88.3281 23.98Z" fill="#111111"/>
</svg>